<svg width="150" height="44" viewBox="0 0 150 44" fill="none" xmlns="http://www.w3.org/2000/svg">
<path d="M42.728 33V15.12H54.656V18H45.992V22.944H53.576V25.824H45.992V33H42.728ZM55.7999 33V19.944H58.7519V22.848L58.5119 22.416C58.8159 21.44 59.2879 20.76 59.9279 20.376C60.5839 19.992 61.3679 19.8 62.2799 19.8H63.0479V22.584H61.9199C61.0239 22.584 60.3039 22.864 59.7599 23.424C59.2159 23.968 58.9439 24.736 58.9439 25.728V33H55.7999ZM70.9685 33.288C69.6245 33.288 68.4485 32.984 67.4405 32.376C66.4325 31.768 65.6485 30.944 65.0885 29.904C64.5285 28.864 64.2485 27.712 64.2485 26.448C64.2485 25.136 64.5285 23.976 65.0885 22.968C65.6645 21.944 66.4405 21.136 67.4165 20.544C68.4085 19.952 69.5125 19.656 70.7285 19.656C71.7525 19.656 72.6485 19.824 73.4165 20.16C74.2005 20.496 74.8645 20.96 75.4085 21.552C75.9525 22.144 76.3685 22.824 76.6565 23.592C76.9445 24.344 77.0885 25.16 77.0885 26.04C77.0885 26.264 77.0725 26.496 77.0405 26.736C77.0245 26.976 76.9845 27.184 76.9205 27.36H66.8405V24.96H75.1445L73.6565 26.088C73.8005 25.352 73.7605 24.696 73.5365 24.12C73.3285 23.544 72.9765 23.088 72.4805 22.752C72.0005 22.416 71.4165 22.248 70.7285 22.248C70.0725 22.248 69.4885 22.416 68.9765 22.752C68.4645 23.072 68.0725 23.552 67.8005 24.192C67.5445 24.816 67.4485 25.576 67.5125 26.472C67.4485 27.272 67.5525 27.984 67.8245 28.608C68.1125 29.216 68.5285 29.688 69.0725 30.024C69.6325 30.36 70.2725 30.528 70.9925 30.528C71.7125 30.528 72.3205 30.376 72.8165 30.072C73.3285 29.768 73.7285 29.36 74.0165 28.848L76.5605 30.096C76.3045 30.72 75.9045 31.272 75.3605 31.752C74.8165 32.232 74.1685 32.608 73.4165 32.88C72.6805 33.152 71.8645 33.288 70.9685 33.288ZM85.6638 33.288C84.3198 33.288 83.1438 32.984 82.1358 32.376C81.1278 31.768 80.3438 30.944 79.7838 29.904C79.2238 28.864 78.9438 27.712 78.9438 26.448C78.9438 25.136 79.2238 23.976 79.7838 22.968C80.3598 21.944 81.1358 21.136 82.1118 20.544C83.1038 19.952 84.2078 19.656 85.4238 19.656C86.4478 19.656 87.3438 19.824 88.1118 20.16C88.8958 20.496 89.5598 20.96 90.1038 21.552C90.6478 22.144 91.0638 22.824 91.3518 23.592C91.6398 24.344 91.7838 25.16 91.7838 26.04C91.7838 26.264 91.7678 26.496 91.7358 26.736C91.7198 26.976 91.6798 27.184 91.6158 27.36H81.5358V24.96H89.8398L88.3518 26.088C88.4958 25.352 88.4558 24.696 88.2318 24.12C88.0238 23.544 87.6718 23.088 87.1758 22.752C86.6958 22.416 86.1118 22.248 85.4238 22.248C84.7678 22.248 84.1838 22.416 83.6718 22.752C83.1598 23.072 82.7678 23.552 82.4958 24.192C82.2398 24.816 82.1438 25.576 82.2078 26.472C82.1438 27.272 82.2478 27.984 82.5198 28.608C82.8078 29.216 83.2238 29.688 83.7678 30.024C84.3278 30.36 84.9678 30.528 85.6878 30.528C86.4078 30.528 87.0158 30.376 87.5118 30.072C88.0238 29.768 88.4238 29.36 88.7118 28.848L91.2558 30.096C90.9998 30.72 90.5998 31.272 90.0558 31.752C89.5118 32.232 88.8638 32.608 88.1118 32.88C87.3758 33.152 86.5598 33.288 85.6638 33.288ZM94.9591 33V15.12H100.743C102.503 15.12 104.023 15.488 105.303 16.224C106.599 16.944 107.599 17.976 108.303 19.32C109.007 20.648 109.359 22.224 109.359 24.048C109.359 25.856 109.007 27.432 108.303 28.776C107.599 30.12 106.599 31.16 105.303 31.896C104.023 32.632 102.503 33 100.743 33H94.9591ZM96.5191 31.56H100.719C102.143 31.56 103.375 31.248 104.415 30.624C105.471 30 106.287 29.128 106.863 28.008C107.455 26.872 107.751 25.552 107.751 24.048C107.751 22.528 107.455 21.208 106.863 20.088C106.287 18.968 105.471 18.104 104.415 17.496C103.359 16.872 102.127 16.56 100.719 16.56H96.5191V31.56ZM115.828 33.288C115.028 33.288 114.316 33.136 113.692 32.832C113.068 32.528 112.572 32.104 112.204 31.56C111.836 31.016 111.652 30.392 111.652 29.688C111.652 29.064 111.788 28.48 112.06 27.936C112.332 27.392 112.772 26.928 113.38 26.544C113.988 26.144 114.78 25.864 115.756 25.704L120.916 24.84V26.184L116.14 26.976C115.052 27.152 114.284 27.48 113.836 27.96C113.388 28.44 113.164 29 113.164 29.64C113.164 30.328 113.42 30.888 113.932 31.32C114.46 31.752 115.124 31.968 115.924 31.968C116.852 31.968 117.66 31.76 118.348 31.344C119.036 30.912 119.572 30.352 119.956 29.664C120.34 28.96 120.532 28.192 120.532 27.36V24.192C120.532 23.344 120.228 22.656 119.62 22.128C119.012 21.6 118.22 21.336 117.243 21.336C116.444 21.336 115.724 21.536 115.084 21.936C114.444 22.336 113.956 22.856 113.62 23.496L112.324 22.8C112.564 22.288 112.932 21.816 113.428 21.384C113.924 20.952 114.5 20.608 115.156 20.352C115.812 20.096 116.508 19.968 117.243 19.968C118.172 19.968 118.988 20.152 119.692 20.52C120.412 20.872 120.972 21.368 121.372 22.008C121.772 22.632 121.972 23.36 121.972 24.192V33H120.532V30.336L120.7 30.456C120.492 30.968 120.148 31.44 119.668 31.872C119.188 32.288 118.62 32.632 117.964 32.904C117.324 33.16 116.612 33.288 115.828 33.288ZM130.233 33.288C129.049 33.288 128.009 32.992 127.113 32.4C126.217 31.808 125.561 31 125.145 29.976L126.393 29.4C126.793 30.184 127.329 30.808 128.001 31.272C128.673 31.72 129.417 31.944 130.233 31.944C131.065 31.944 131.761 31.744 132.321 31.344C132.897 30.928 133.185 30.384 133.185 29.712C133.185 29.296 133.073 28.944 132.849 28.656C132.641 28.368 132.369 28.136 132.033 27.96C131.697 27.768 131.337 27.624 130.953 27.528L128.985 26.976C127.881 26.672 127.065 26.224 126.537 25.632C126.025 25.04 125.769 24.344 125.769 23.544C125.769 22.824 125.953 22.2 126.321 21.672C126.689 21.128 127.185 20.712 127.809 20.424C128.433 20.12 129.121 19.968 129.873 19.968C130.929 19.968 131.889 20.24 132.753 20.784C133.617 21.328 134.225 22.064 134.577 22.992L133.281 23.592C132.945 22.872 132.473 22.312 131.865 21.912C131.257 21.496 130.585 21.288 129.849 21.288C129.081 21.288 128.457 21.496 127.977 21.912C127.497 22.312 127.257 22.824 127.257 23.448C127.257 23.848 127.353 24.184 127.545 24.456C127.737 24.712 127.985 24.928 128.289 25.104C128.609 25.264 128.937 25.392 129.273 25.488L131.409 26.112C132.449 26.4 133.249 26.856 133.809 27.48C134.385 28.104 134.673 28.84 134.673 29.688C134.673 30.376 134.481 30.992 134.097 31.536C133.713 32.08 133.185 32.512 132.513 32.832C131.841 33.136 131.081 33.288 130.233 33.288ZM138.125 33V14.832H139.565V22.824L139.205 22.728C139.493 21.88 140.005 21.208 140.741 20.712C141.493 20.216 142.365 19.968 143.357 19.968C144.237 19.968 145.037 20.168 145.757 20.568C146.477 20.968 147.053 21.528 147.485 22.248C147.917 22.952 148.133 23.76 148.133 24.672V33H146.693V25.08C146.693 24.312 146.533 23.656 146.213 23.112C145.909 22.552 145.485 22.128 144.941 21.84C144.413 21.536 143.813 21.384 143.141 21.384C142.421 21.384 141.789 21.552 141.245 21.888C140.717 22.224 140.301 22.688 139.997 23.28C139.709 23.872 139.565 24.552 139.565 25.32V33H138.125Z" fill="white"/>
<path d="M8.94981 23.8836C17.1535 22.0444 21.8606 18.63 23.1886 17.1527C25.1125 19.7791 23.5006 24.7713 22.4542 26.9391C19.9435 30.6278 9.5718 33.6852 9.35294 33.8456C5.33664 36.9488 9.0603 41.9613 9.23039 42.1733C9.23088 42.1734 9.23137 42.1736 9.23186 42.1737C9.23842 42.1826 9.23765 42.1823 9.23039 42.1733C5.05462 41.0619 2.48669 36.4087 1.72464 34.2207C0.0360006 28.059 5.83782 24.7619 8.94981 23.8836Z" fill="#00B0FF"/>
<path d="M19.2543 18.6806C5.84573 22.0456 2.3459 26.3581 2.27206 28.0937C0.567014 20.2601 3.11892 17.16 4.67093 15.0703C5.75714 13.0639 13.9224 10.8693 17.506 9.86971C23.1659 8.41418 27.6286 5.09151 29.5156 3.76525C32.8828 13.1366 24.0777 17.6135 19.2543 18.6806Z" fill="#615DFF"/>
</svg>
